<?xml version="1.0" standalone="no"?>
<!DOCTYPE svg PUBLIC "-//W3C//DTD SVG 20010904//EN"
 "http://www.w3.org/TR/2001/REC-SVG-20010904/DTD/svg10.dtd">
<svg version="1.0" xmlns="http://www.w3.org/2000/svg"
 width="1024.000000pt" height="1024.000000pt" viewBox="0 0 1024.000000 1024.000000"
 preserveAspectRatio="xMidYMid meet">

<g transform="translate(0.000000,1024.000000) scale(0.100000,-0.100000)"
fill="#000000" stroke="none">
<path d="M2177 10179 c-7 -4 -101 -9 -210 -12 -109 -2 -203 -9 -210 -15 -6 -5
-41 -13 -77 -17 -36 -4 -69 -11 -75 -15 -5 -4 -41 -13 -80 -19 -38 -7 -86 -19
-105 -27 -63 -27 -239 -111 -265 -127 -105 -64 -155 -98 -155 -107 0 -5 -5
-10 -11 -10 -12 0 -78 -45 -133 -91 -94 -77 -296 -302 -296 -329 0 -6 -3 -10
-8 -10 -4 0 -16 -17 -27 -37 -11 -21 -37 -61 -57 -89 -21 -28 -38 -57 -38 -65
0 -8 -23 -58 -50 -113 -28 -54 -50 -103 -50 -108 0 -6 -6 -24 -14 -41 -30 -70
-39 -94 -57 -151 -10 -32 -19 -69 -19 -82 0 -12 -4 -25 -9 -29 -5 -3 -12 -36
-16 -73 -3 -37 -11 -76 -18 -87 -13 -21 -19 -1775 -20 -5135 0 -1499 5 -1747
33 -1800 5 -10 10 -30 10 -44 0 -14 6 -45 14 -68 7 -24 21 -72 31 -108 10 -36
28 -88 41 -116 13 -28 31 -73 40 -100 21 -63 109 -232 165 -317 91 -137 300
-362 394 -422 28 -18 63 -45 79 -59 26 -25 84 -66 131 -92 200 -111 183 -103
310 -140 33 -9 71 -20 85 -25 23 -7 56 -15 216 -49 104 -22 340 -33 709 -32
209 1 524 2 700 2 176 -1 385 0 465 0 318 3 1227 3 1255 1 50 -5 223 -5 340
-2 272 9 2341 7 2352 -1 26 -20 832 7 947 32 190 41 256 59 298 81 10 5 27 9
39 9 16 0 225 105 307 155 51 31 110 74 142 102 19 18 43 33 52 33 22 0 263
253 347 365 71 94 151 225 151 246 0 7 6 20 14 28 19 23 101 234 126 327 24
87 37 149 50 238 4 33 9 1599 10 3480 2 3148 1 3428 -14 3506 -9 47 -20 92
-23 100 -4 8 -12 40 -19 70 -21 93 -41 150 -98 289 -31 74 -56 137 -56 141 0
8 -69 118 -101 160 -11 14 -35 49 -54 77 -19 29 -44 58 -55 65 -11 7 -40 40
-65 73 -24 33 -63 76 -87 95 -23 19 -63 54 -89 78 -25 23 -51 42 -57 42 -6 0
-27 14 -47 32 -36 31 -51 41 -142 88 -26 14 -63 35 -82 48 -19 12 -42 22 -52
22 -11 0 -19 3 -19 8 0 4 -24 18 -52 31 -29 12 -60 27 -69 31 -9 5 -54 16 -98
24 -45 9 -90 20 -101 26 -10 5 -32 10 -49 10 -16 0 -32 4 -35 9 -4 5 -41 12
-84 16 -42 4 -82 11 -87 16 -12 9 -6200 17 -6218 8z m5827 -472 c128 -27 336
-93 432 -137 49 -23 114 -53 144 -67 60 -28 152 -94 305 -219 104 -85 155
-136 243 -242 28 -34 68 -79 87 -99 19 -20 35 -41 35 -46 0 -6 22 -44 49 -86
62 -97 143 -249 171 -321 12 -30 28 -68 35 -85 26 -58 93 -361 110 -496 15
-119 17 -205 12 -690 -3 -305 -10 -572 -15 -594 -5 -22 -10 -36 -11 -31 0 5
-12 -1 -26 -14 -14 -13 -28 -20 -32 -17 -3 4 0 7 8 7 10 1 9 4 -4 14 -10 8
-16 20 -15 27 2 7 -3 14 -9 15 -7 1 -17 2 -23 3 -13 1 -13 41 0 41 5 0 13 -7
17 -15 11 -19 36 -4 28 17 -4 10 -14 14 -26 11 -10 -3 -32 0 -48 7 -24 10 -33
9 -53 -4 -30 -20 -107 -14 -124 9 -17 23 -32 11 -26 -20 4 -23 -12 -37 -20
-16 -1 4 -13 12 -26 15 -19 6 -24 3 -33 -23 -12 -34 -33 -39 -61 -14 -17 15
-18 15 -18 0 0 -11 -8 -17 -24 -17 -25 0 -43 -26 -23 -33 8 -3 5 -10 -8 -20
-21 -16 -22 -19 -24 -63 0 -14 -5 -22 -11 -19 -5 3 -10 -1 -10 -9 0 -9 6 -16
13 -16 9 0 9 -2 -1 -8 -10 -7 -15 -129 -23 -548 -19 -998 -26 -913 -28 341 -1
1249 -2 1276 -42 1449 -31 140 -112 340 -190 472 -32 55 -59 104 -59 108 0 9
-57 93 -86 126 -203 231 -238 267 -274 283 -8 4 -69 45 -135 92 -149 106 -266
165 -415 209 -106 31 -159 44 -310 78 -77 17 -4460 24 -4600 8 -179 -21 -423
-90 -586 -165 -144 -67 -370 -231 -495 -360 -160 -167 -188 -197 -204 -230 -8
-16 -41 -73 -74 -125 -69 -108 -106 -183 -162 -323 -31 -78 -44 -129 -61 -250
-21 -149 -21 -181 -24 -1446 -1 -828 -6 -1297 -12 -1303 -6 -6 -12 97 -16 299
-8 364 -11 397 -34 388 -9 -4 -39 -7 -66 -6 -31 1 -52 -3 -57 -11 -9 -14 -131
-15 -218 -3 -37 6 -43 4 -38 -9 4 -11 1 -13 -11 -9 -9 3 -22 10 -28 15 -8 5
-14 2 -18 -8 -6 -15 -9 -15 -29 5 -55 50 -97 17 -116 -92 -8 -43 -15 -76 -16
-75 -2 2 -4 570 -6 1263 -3 1346 -4 1326 47 1524 73 288 156 474 315 708 27
40 49 77 49 82 0 6 6 14 13 18 7 4 45 47 85 94 63 77 200 211 272 267 112 87
312 212 339 212 5 0 42 15 83 34 132 60 172 75 268 100 87 22 244 50 330 59
19 2 1273 3 2785 2 2516 -1 2757 -3 2829 -18z m-2812 -2199 c25 -16 57 -40 70
-53 23 -23 302 -205 313 -205 8 0 259 -152 265 -161 3 -3 10 -8 16 -10 5 -2
41 -22 78 -44 61 -36 67 -42 62 -67 -14 -73 -17 -220 -6 -367 12 -173 7 -261
-15 -261 -26 0 -295 279 -295 306 0 3 -20 26 -45 51 -25 25 -60 66 -77 91 -40
59 -136 173 -158 189 -20 14 -130 147 -130 157 0 7 -73 100 -96 121 -5 5 -23
28 -39 49 -45 62 -155 175 -176 181 -37 12 -19 38 41 59 8 3 44 2 80 -1 48 -4
77 -13 112 -35z m-502 -382 c0 -3 -4 -8 -10 -11 -5 -3 -10 -1 -10 4 0 6 5 11
10 11 6 0 10 -2 10 -4z m-480 -26 c0 -6 -8 -14 -17 -17 -10 -4 -43 -23 -73
-43 -30 -20 -77 -48 -105 -61 -27 -13 -69 -36 -91 -51 -23 -15 -45 -28 -49
-28 -3 0 -21 -11 -38 -24 -18 -13 -63 -41 -102 -61 -106 -57 -157 -87 -191
-112 -17 -13 -35 -23 -41 -23 -11 0 -215 -110 -223 -120 -3 -3 -32 -22 -65
-41 -33 -19 -68 -38 -77 -44 -70 -42 -134 -75 -141 -72 -8 2 140 95 177 110
11 4 35 19 53 32 17 14 36 25 41 25 6 0 12 4 14 8 3 8 56 39 203 117 38 20 72
40 75 45 3 4 68 45 145 90 77 45 158 95 180 111 22 15 46 28 52 29 7 0 42 18
78 40 81 50 175 100 186 100 5 0 9 -5 9 -10z m440 -11 c0 -14 -17 -10 -23 5
-4 10 -1 13 9 9 7 -3 14 -9 14 -14z m65 -38 c6 -1 2 -6 -7 -12 -18 -10 -71 -2
-64 10 4 6 28 6 71 2z m70 -52 c6 5 24 11 40 15 20 4 25 3 16 -3 -7 -5 -10
-14 -6 -21 5 -8 11 -8 17 -2 11 11 48 4 48 -9 0 -5 14 -9 30 -9 24 0 30 -4 28
-17 -2 -13 4 -18 22 -18 14 0 36 -11 48 -23 13 -13 28 -19 37 -15 20 7 63 -14
91 -46 14 -14 27 -21 34 -16 9 6 11 4 5 -4 -5 -9 0 -12 16 -9 16 2 23 -2 21
-10 -2 -9 4 -12 17 -7 14 4 21 0 26 -15 4 -12 13 -19 20 -16 7 2 21 -4 30 -14
10 -11 22 -17 28 -13 5 3 15 0 21 -8 6 -8 27 -24 46 -37 25 -15 30 -22 17 -22
-20 0 -44 10 -182 75 -49 24 -144 68 -210 100 -66 31 -146 69 -178 86 -31 16
-63 29 -69 29 -18 0 -98 41 -98 50 0 5 17 0 38 -10 20 -10 42 -15 47 -11z
m702 -325 c-3 -3 -12 -4 -19 -1 -8 3 -5 6 6 6 11 1 17 -2 13 -5z m-2622 -354
c-3 -5 -11 -10 -16 -10 -6 0 -7 5 -4 10 3 6 11 10 16 10 6 0 7 -4 4 -10z
m4409 -200 c27 -68 31 -164 12 -256 -9 -44 -20 -127 -26 -185 -6 -57 -12 -109
-15 -116 -2 -6 -13 -72 -25 -145 -12 -73 -27 -162 -35 -198 -8 -36 -21 -114
-30 -175 -9 -60 -20 -132 -25 -160 -5 -27 -11 -72 -15 -100 -3 -27 -10 -70
-15 -95 -6 -25 -20 -103 -31 -175 -12 -71 -27 -166 -35 -210 -7 -44 -20 -132
-28 -195 -8 -64 -18 -123 -22 -133 -8 -21 -23 -22 -39 -1 -10 15 -13 15 -26 2
-8 -10 -19 -12 -29 -7 -26 13 -55 22 -66 20 -7 -1 -58 8 -115 19 -56 11 -105
17 -107 15 -3 -3 -11 0 -19 6 -10 9 -13 8 -13 0 0 -8 -5 -7 -15 2 -8 9 -44 19
-80 22 -36 4 -65 12 -65 17 0 14 -139 -2 -175 -20 -32 -16 -94 -59 -110 -77
-19 -21 -172 -135 -181 -135 -5 0 -31 -18 -59 -40 -166 -133 -384 -290 -469
-339 -114 -64 -220 -161 -253 -231 -15 -33 -40 -91 -46 -110 -4 -11 -6 -10 -6
3 -1 21 -60 107 -73 107 -4 0 -8 -10 -9 -22 -1 -20 -2 -19 -9 6 -5 15 -15 36
-23 45 -8 9 -18 27 -22 40 -9 30 -73 101 -91 101 -19 0 -19 -1 21 -78 55 -107
75 -154 75 -176 0 -29 38 -146 55 -173 8 -12 15 -36 15 -53 0 -17 7 -47 15
-67 11 -26 15 -76 15 -197 0 -88 -4 -167 -9 -175 -6 -9 -18 -11 -42 -6 -41 9
-54 17 -144 80 -38 28 -96 68 -127 89 -32 21 -58 42 -58 47 0 5 -5 9 -11 9
-12 0 -232 158 -271 194 -34 31 -121 96 -130 96 -8 0 -57 38 -166 128 -24 19
-62 48 -85 65 -23 17 -51 39 -62 50 -11 10 -36 27 -55 37 -19 10 -49 31 -66
47 -16 15 -43 38 -60 50 -16 12 -64 49 -106 83 -43 33 -82 60 -87 60 -5 0 -12
7 -15 16 -6 15 -4 15 18 0 27 -17 51 -22 42 -7 -3 4 12 27 34 49 25 25 38 46
34 56 -3 8 6 30 20 49 14 19 26 45 26 59 0 14 12 36 29 52 18 17 27 34 24 43
-4 9 3 22 16 32 16 13 23 29 25 59 1 23 5 44 8 48 9 8 -3 115 -15 139 -10 19
-9 19 10 3 11 -10 23 -18 27 -18 12 0 143 -87 244 -163 52 -38 107 -76 121
-83 14 -7 58 -38 96 -68 89 -69 301 -216 312 -216 5 0 23 -13 41 -30 43 -39
162 -105 170 -94 4 5 5 385 2 844 -4 718 -7 839 -20 865 l-15 30 -452 7 c-250
4 -470 12 -490 17 -109 30 -159 99 -151 210 5 76 54 177 84 173 10 -1 43 -5
72 -9 30 -3 55 -11 57 -17 2 -6 6 -38 9 -71 3 -39 10 -63 21 -71 33 -24 149
-35 334 -32 l183 3 18 35 c11 19 24 50 31 67 13 37 52 53 132 53 55 0 60 -7
77 -104 5 -33 12 -61 14 -63 2 -3 136 -4 298 -3 338 1 327 -2 336 92 2 29 9
59 14 66 7 7 37 12 85 12 l74 0 53 -50 53 -50 57 35 c38 23 82 39 125 46 68
12 101 34 101 70 0 25 13 31 66 31 57 0 77 -18 105 -91 58 -157 26 -270 -96
-334 -35 -18 -53 -21 -145 -17 -236 8 -562 3 -570 -9 -4 -7 -10 -101 -13 -209
-8 -230 -10 -1532 -3 -1539 18 -19 352 214 545 379 24 21 48 38 54 38 30 0
370 288 393 333 7 12 17 58 23 102 6 44 24 172 41 285 17 113 35 250 40 305
13 147 35 309 85 633 8 51 15 111 15 132 0 32 8 47 53 96 28 31 70 71 93 88
73 56 240 180 295 220 30 22 101 64 159 94 58 30 107 59 109 64 6 16 37 -24
55 -72z m-2184 -3185 c0 -25 -3 -45 -8 -45 -4 0 -6 20 -4 45 2 25 6 45 8 45 2
0 4 -20 4 -45z m3582 -563 c8 -9 14 -9 24 -1 17 14 76 8 82 -8 2 -7 -3 -13
-12 -13 -9 0 -16 -5 -16 -10 0 -7 7 -7 21 0 11 7 27 9 35 6 9 -3 12 -1 9 4 -3
6 1 10 9 10 9 0 16 -5 16 -11 0 -6 7 -4 15 5 8 8 15 19 15 25 0 6 5 11 11 11
7 0 9 -11 5 -30 -3 -18 -2 -29 3 -25 12 7 42 -5 36 -15 -6 -10 42 -31 57 -25
7 3 31 -4 52 -14 34 -18 41 -18 60 -6 19 13 23 12 43 -8 18 -20 31 -23 93 -22
39 1 64 -2 53 -6 -11 -5 1 -8 33 -8 27 -1 55 -6 61 -12 6 -6 44 -12 86 -13 45
-1 81 -7 91 -15 20 -17 26 -12 36 31 l8 33 1 -41 c1 -22 -2 -44 -6 -48 -5 -4
-13 -38 -20 -74 -16 -91 -49 -219 -67 -256 -8 -17 -24 -54 -36 -81 -49 -114
-75 -160 -187 -331 -18 -28 -33 -55 -33 -60 0 -10 -22 -35 -208 -236 -64 -71
-120 -128 -124 -128 -6 0 -190 -133 -234 -169 -21 -17 -233 -121 -247 -121 -7
0 -31 -8 -53 -19 -98 -47 -283 -97 -449 -122 -133 -21 -5583 -21 -5695 0 -119
21 -367 91 -395 112 -5 4 -32 14 -60 22 -62 18 -215 95 -215 108 0 5 -5 9 -11
9 -14 0 -142 89 -194 135 -22 19 -44 35 -48 35 -26 0 -278 276 -270 296 3 8 0
14 -7 14 -6 0 -8 -4 -5 -10 3 -5 3 -10 -2 -10 -4 0 -20 23 -34 50 -15 28 -23
50 -18 50 5 0 9 5 9 10 0 6 -7 10 -15 10 -8 0 -15 7 -15 16 0 8 -4 13 -9 10
-5 -3 -12 1 -15 9 -5 13 -2 14 15 4 26 -14 29 -10 16 21 -22 53 -20 59 18 53
26 -4 36 -2 41 11 3 9 11 16 17 16 6 0 18 7 28 16 22 20 42 9 34 -17 -6 -18 6
-24 42 -20 6 1 14 -3 18 -9 3 -5 11 -10 16 -10 6 0 -5 13 -23 30 -24 22 -28
30 -15 30 9 0 17 -4 17 -10 0 -5 7 -10 15 -10 8 0 14 3 14 7 -4 22 2 33 13 26
7 -4 25 -6 41 -4 17 1 29 -3 33 -13 8 -21 24 -21 24 0 0 12 5 14 18 8 9 -4 35
-9 57 -10 63 -2 65 -3 65 -25 0 -11 4 -17 10 -14 5 3 10 23 11 43 0 33 1 34
10 14 8 -22 12 -23 79 -16 49 5 70 3 70 -5 0 -6 7 -11 16 -11 11 0 14 6 9 20
-7 22 -3 24 23 11 9 -6 29 -12 45 -16 18 -4 27 -12 27 -25 0 -26 21 -26 43 0
14 17 15 21 3 26 -8 3 -33 32 -56 64 -22 33 -46 65 -53 73 -17 17 -48 63 -82
117 l-27 45 54 -52 c49 -49 79 -68 62 -42 -4 7 4 10 22 8 16 -1 40 1 54 6 27
9 59 8 75 -4 13 -9 56 -8 73 2 6 5 12 18 12 30 0 12 4 18 8 12 9 -13 87 -82
142 -125 24 -19 57 -47 73 -62 16 -14 84 -54 151 -88 66 -35 137 -71 156 -81
51 -26 94 -44 195 -79 50 -17 99 -35 110 -40 25 -12 126 -30 220 -40 61 -7 55
-8 -49 -7 l-119 2 -14 -40 c-7 -22 -16 -47 -20 -55 -3 -8 -7 -19 -7 -23 -1 -4
-7 -11 -13 -15 -23 -15 139 -35 337 -43 107 -4 584 -6 1060 -4 1722 9 1642 7
1675 24 22 12 29 22 27 39 -3 17 2 25 17 29 12 3 21 12 21 19 0 8 9 14 20 14
13 0 17 5 14 14 -4 9 3 16 18 19 13 2 -388 5 -891 6 -503 0 -912 3 -909 6 2 3
560 5 1239 6 1598 3 1769 8 1999 63 246 58 606 226 721 335 15 14 70 64 123
111 93 81 176 169 176 187 1 7 72 108 101 141 12 14 62 104 101 182 13 25 26
47 30 50 3 3 10 19 14 35 7 24 9 26 12 10 2 -11 9 -26 14 -33z m-5384 -1089
c-38 -2 -98 -2 -135 0 -38 2 -7 3 67 3 74 0 105 -1 68 -3z"/>
<path d="M9161 6654 c0 -11 3 -14 6 -6 3 7 2 16 -1 19 -3 4 -6 -2 -5 -13z"/>
<path d="M9576 6644 c-4 -9 -4 -19 -1 -22 3 -3 11 0 17 6 9 9 9 15 1 23 -7 7
-12 5 -17 -7z"/>
<path d="M5060 7522 c0 -5 7 -9 15 -9 8 0 15 4 15 9 0 4 -7 8 -15 8 -8 0 -15
-4 -15 -8z"/>
<path d="M5885 5464 c-68 -24 -83 -69 -45 -131 15 -26 27 -33 50 -33 70 0 130
51 130 110 0 28 -44 70 -72 69 -13 0 -41 -7 -63 -15z"/>
<path d="M5778 5453 c6 -2 18 -2 25 0 6 3 1 5 -13 5 -14 0 -19 -2 -12 -5z"/>
<path d="M6290 4100 c0 -5 5 -10 10 -10 6 0 10 5 10 10 0 6 -4 10 -10 10 -5 0
-10 -4 -10 -10z"/>
<path d="M1048 1511 c-15 -28 -15 -29 2 -34 12 -3 17 0 14 8 -3 7 -1 16 5 20
12 7 15 35 4 35 -5 0 -15 -13 -25 -29z"/>
<path d="M1365 1531 c-3 -5 -1 -12 5 -16 5 -3 10 1 10 9 0 18 -6 21 -15 7z"/>
<path d="M1820 1490 c0 -5 5 -10 11 -10 5 0 7 5 4 10 -3 6 -8 10 -11 10 -2 0
-4 -4 -4 -10z"/>
</g>
</svg>
